<svg id="Layer_1" data-name="Layer 1" xmlns="http://www.w3.org/2000/svg" viewBox="0 0 1473.8 642.85">
  <defs>
    <style>
      .cls-1 {
        fill: #fff;
      }
    </style>
  </defs>
  <path class="cls-1" d="M1204,484.67v-2.88q13.65,0,23.38-6.3a71.47,71.47,0,0,0,17.16-15.65q2.9-4,6-9a160.45,160.45,0,0,0,7.65-14.75q4.55-9.72,11.79-25.73t18.2-41.55q11-25.54,26.69-62.42t37.64-88.32q5,10.44,12,27.16t15.52,36.7l17.79,41.91q9.32,21.94,18.2,43.35t17.17,40.65q8.28,19.26,14.48,34,3.3,6.84,6.62,14a69.21,69.21,0,0,0,7.66,12.95,37.16,37.16,0,0,0,10.14,9.36,25.29,25.29,0,0,0,13.64,3.6v2.88H1405.1v-2.88q9.93,0,14.48-2.52a9.92,9.92,0,0,0,5.38-7,21.91,21.91,0,0,0-1-10.43q-1.86-5.94-4.75-12.77l-33.1-77.71H1290.5q-7.87,18.35-13.24,30.4t-8.69,19.79q-3.32,7.74-5.37,12.59a78.42,78.42,0,0,0-3.32,9.17,79.32,79.32,0,0,0-3.51,14,29.56,29.56,0,0,0,.41,12.23,15.57,15.57,0,0,0,6.2,8.82c3.17,2.28,7.8,3.42,13.86,3.42v2.88Zm181.21-116.21L1338.9,258l-47.58,110.44Z" transform="translate(-12.18 -24)"/>
  <path class="cls-1" d="M441.76,221.68h72.82v2.88q-9.11,0-15.31,4.13t-6.21,12.78V351.55H633.73V241.47q0-8.64-6.42-12.78a27.29,27.29,0,0,0-15.1-4.13v-2.88H685v2.88q-9.1,0-15.31,4.13t-6.2,12.78V464.88q0,8.28,6.2,12.59T685,481.79v2.88H612.21v-2.88a26.37,26.37,0,0,0,15.1-4.32q6.42-4.32,6.42-12.59V354.43H493.06V464.88q0,8.28,6.21,12.59t15.31,4.32v2.88H441.76v-2.88a26.39,26.39,0,0,0,15.1-4.32q6.4-4.32,6.41-12.59V241.47q0-8.64-6.41-12.78a27.32,27.32,0,0,0-15.1-4.13Z" transform="translate(-12.18 -24)"/>
  <path class="cls-1" d="M1087.78,221.68q29.78,0,50,10.07t30.82,25a58.91,58.91,0,0,1,11.18,32.56,54.82,54.82,0,0,1-9.11,32.55q-9.71,14.94-29.57,25T1090.67,357H1087q8.68,2.88,17.37,11a147.52,147.52,0,0,1,16.76,18.71q8.07,10.62,15.51,22.67t13.66,23q6.2,11,11,19.78t7.25,13.14a32.11,32.11,0,0,0,13,12.41,37.13,37.13,0,0,0,17.18,4.14v2.88h-72.82v-2.88q8.69,0,11.37-4c1.8-2.64,1-6.71-2.26-12.23q-7.47-11.87-15.32-26.62t-17.17-29.15a225.81,225.81,0,0,0-20.28-26.8,86.81,86.81,0,0,0-24.6-19.6c-2.77-1.44-5.25-2.64-7.46-3.6a28.12,28.12,0,0,0-6.41-2,57.09,57.09,0,0,0-6.41-.72c-2.22-.12-4.83-.18-7.86-.18V464.88q0,8.28,6.21,12.59t15.31,4.32v2.88H978.14v-2.88q9.09,0,15.31-4.32t6.2-12.59V241.47q0-8.28-6.2-12.59t-15.31-4.32v-2.88Zm2.89,132.39q20.26,0,33.51-9.53a58.43,58.43,0,0,0,19.66-23.93,69.65,69.65,0,0,0,5.79-31.29A77.07,77.07,0,0,0,1142,258a62.25,62.25,0,0,0-20.69-23.93q-13.65-9.53-33.51-9.53h-36q-9.54,0-15.94,4c-4.28,2.63-6.41,7-6.41,12.95v112.6Z" transform="translate(-12.18 -24)"/>
  <path class="cls-1" d="M15.49,445a24.94,24.94,0,0,0,6.42,16.55A53.49,53.49,0,0,0,39.07,474.5,105.07,105.07,0,0,0,63.69,483,131.58,131.58,0,0,0,92,486a145.5,145.5,0,0,0,32.06-3.42,78.94,78.94,0,0,0,26.48-11,58.32,58.32,0,0,0,18.2-19.06q6.84-11.51,6.82-27.71a37.78,37.78,0,0,0-7-22.48,76.94,76.94,0,0,0-18.4-18,176.28,176.28,0,0,0-26.07-15.11q-14.69-7-30.2-14T63.69,341A157.78,157.78,0,0,1,37.62,325.2,79.11,79.11,0,0,1,19.21,306a42.29,42.29,0,0,1-7-23.92q0-18.34,8.89-30.76a66.42,66.42,0,0,1,23-20,104.44,104.44,0,0,1,31.45-10.61,198.63,198.63,0,0,1,34.33-3.06,322.27,322.27,0,0,1,35.8,2,209.8,209.8,0,0,1,35,7v33.46h-3.31a26.44,26.44,0,0,0-6.84-18.36,51.85,51.85,0,0,0-16.95-12.23,98.67,98.67,0,0,0-21.73-7,105.7,105.7,0,0,0-20.69-2.34,180.26,180.26,0,0,0-26.48,2A87.9,87.9,0,0,0,60.79,229a43.51,43.51,0,0,0-17.17,13.86q-6.63,9-6.62,23a41.18,41.18,0,0,0,12,29.68A128.76,128.76,0,0,0,79,318a379.61,379.61,0,0,0,39.11,18.88A358.1,358.1,0,0,1,157.19,356a130.21,130.21,0,0,1,30,22.85,42.21,42.21,0,0,1,12,30.22q0,22.65-9.31,38a70.57,70.57,0,0,1-24.82,24.46,114.88,114.88,0,0,1-35.58,13.32,206,206,0,0,1-41.58,4.13A265.15,265.15,0,0,1,48.79,486a280.68,280.68,0,0,1-36.61-7.92V445Z" transform="translate(-12.18 -24)"/>
  <path class="cls-1" d="M810.07,540.52c.42-3.31-1-6.64-4.54-6.88a5.28,5.28,0,0,0-5.63,4.91c-.33,4.76,4.37,5.91,3.24,12.05-8.69,26.91-41.35,94-161.12,85.84-116.53-7.94-196-128.74-210.25-152-16.7-35.69-18.39-39.29-20-42.7-4.13-9.83-78.46-185.46-83.15-196.61s-8.69-20.21-12-27.17q-21.93,51.47-37.65,88.33c-10.16,23.81-18.79,44-26,60.73h-.72v1.68q-11,25.56-18.21,41.56T222.25,436a157.83,157.83,0,0,1-7.65,14.75c-2.07,3.36-4.08,6.36-6,9a71.66,71.66,0,0,1-17.17,15.64q-9.72,6.3-23.38,6.3v2.88h72.82v-2.88c-6.07,0-10.7-1.13-13.86-3.41a15.57,15.57,0,0,1-6.21-8.82,29.75,29.75,0,0,1-.41-12.23,79.15,79.15,0,0,1,3.52-14,76.6,76.6,0,0,1,3.31-9.18q2.06-4.85,5.37-12.59t8.69-19.79c1-2.26,6.33-14.62,13.46-31.23h95.45l50.13,115.2c51.1,96.34,126.26,162,240,167.18,146.55,6.71,169.21-105.4,169.69-112l0,0C810,540.71,810.06,540.62,810.07,540.52ZM256.19,367.06c18.29-42.65,46.74-109.12,46.74-109.12l45.84,109.12Z" transform="translate(-12.18 -24)"/>
  <path class="cls-1" d="M917.67,326.84C968.59,288.91,987.23,222.52,962,169c-14.84-31.5-81.54-128.47-317.65-66.18-107.86,21.41-523.92,106.71-542.45.64.34-16.8,5.72-36.48,16.08-58.89,4.44-4.54,9.69-2.77,13.4-7.72a8.15,8.15,0,0,0-1.5-11.28c-4.25-3.3-9.11-.88-11.89,3.34a24.93,24.93,0,0,0-4,12.47c-21.51,45.95-22.82,81.32-3.64,105,47.84,59.1,220.73,47,528.52-37,142-38.78,222.76-20.32,267.93,7.45l.4.25a75.8,75.8,0,0,1,24.91,24.23,151.92,151.92,0,0,1-2.46,163.09A91.85,91.85,0,0,1,899.55,333c-48.43,28.43-94.07,19.86-129.48,2.09V241.47q0-8.64,7-12.78t17.79-4.49H876.4a89.36,89.36,0,0,1,16.13,1.44,48.64,48.64,0,0,1,14.48,5,29,29,0,0,1,10.55,9.54q3.93,5.92,3.93,14.57h3.31v-33.1h-206v2.88q9.51.36,15.51,4.85a14.31,14.31,0,0,1,6,12.06V464.88q0,8.28-6.62,12.59a26.65,26.65,0,0,1-14.89,4.32v2.88h206V451.21h-3.31q0,8.64-3.93,14.57A28.93,28.93,0,0,1,907,475.31a48.38,48.38,0,0,1-14.48,5,89.36,89.36,0,0,1-16.13,1.44H791.58q-9.52,0-15.51-4.86a14.92,14.92,0,0,1-6-12.05V340.59C810.15,360.1,862.64,367.83,917.67,326.84Z" transform="translate(-12.18 -24)"/>
  <path class="cls-1" d="M852.43,623q-9.85,0-15.38-4.65t-5.52-11.16a13.48,13.48,0,0,1,4.67-10.12,46.84,46.84,0,0,1,11.48-7.69,113.63,113.63,0,0,1,14.18-5.76q7.39-2.43,12.84-4.36a12,12,0,0,0,6.54-5.39,14.54,14.54,0,0,0,2-7.91,15,15,0,0,0-3.74-9.38c-2.37-2.81-5.72-4.26-10-4.36a14.7,14.7,0,0,0-5.95,1.18,22,22,0,0,0-5,3,28.14,28.14,0,0,0-4.17,4.14q-1.87,2.3-3.4,4.51a9.89,9.89,0,0,1-2.72,2.58,6.56,6.56,0,0,1-3.56,1,7.6,7.6,0,0,1-4.59-1.48,4.11,4.11,0,0,1-1.87-3.84,7.11,7.11,0,0,1,2.89-4.95,23.78,23.78,0,0,1,7.13-3.92,53.52,53.52,0,0,1,10-2.51,70.19,70.19,0,0,1,11.13-.88,57.16,57.16,0,0,1,9.77.81,31.42,31.42,0,0,1,8.33,2.58,17,17,0,0,1,5.86,4.51,10.18,10.18,0,0,1,2.21,6.58v47.73a5.55,5.55,0,0,0,2.55,5,11.49,11.49,0,0,0,6.29,1.62v1.18H883.19V603.34a48.18,48.18,0,0,1-4.92,5.91,53.89,53.89,0,0,1-7.4,6.43,49.71,49.71,0,0,1-8.92,5.17A23,23,0,0,1,852.43,623Zm-9.68-19.8a11,11,0,0,0,1.36,5.32,13.71,13.71,0,0,0,3.73,4.36,17.92,17.92,0,0,0,5.61,2.88,22.14,22.14,0,0,0,6.8,1,17.39,17.39,0,0,0,7.31-1.63,31.37,31.37,0,0,0,6.62-4.06,41.37,41.37,0,0,0,5.44-5.17,31.68,31.68,0,0,0,3.57-4.81V577.33L872,581.47q-8.84,3.25-14.53,5.62a50.45,50.45,0,0,0-8.93,4.57,12.89,12.89,0,0,0-4.5,4.88A15.34,15.34,0,0,0,842.75,603.19Z" transform="translate(-12.18 -24)"/>
  <path class="cls-1" d="M941.72,623a36,36,0,0,1-13.17-3,31.69,31.69,0,0,1-17.25-18.4,36.1,36.1,0,0,1-2-14.26A39.16,39.16,0,0,1,913.17,572a37.78,37.78,0,0,1,33.65-21,32.15,32.15,0,0,1,10.45,1.7,26.13,26.13,0,0,1,9,5.24,25.62,25.62,0,0,1,6.37,8.94A31.46,31.46,0,0,1,975,579.7h-53.7A50,50,0,0,0,922,594a36.49,36.49,0,0,0,5,12.93,30,30,0,0,0,9.52,9.45,25.7,25.7,0,0,0,14,3.7,33.45,33.45,0,0,0,16.31-4.29c5.21-2.85,15.32-12.23,18.72-17h.83c-4.54,5.91-15.75,16.57-22.44,19.62A52.82,52.82,0,0,1,941.72,623Zm2.21-70.49q-8,0-14.28,6.8t-8.15,19.36h42q-.86-12.85-6.2-19.51A16.49,16.49,0,0,0,943.93,552.5Z" transform="translate(-12.18 -24)"/>
  <path class="cls-1" d="M1214,623a36,36,0,0,1-13.17-3,31.69,31.69,0,0,1-17.25-18.4,36.1,36.1,0,0,1-2-14.26,39.16,39.16,0,0,1,3.91-15.37,37.78,37.78,0,0,1,33.65-21,32.19,32.19,0,0,1,10.45,1.7,26.13,26.13,0,0,1,9,5.24,25.62,25.62,0,0,1,6.37,8.94,31.63,31.63,0,0,1,2.38,12.79h-53.71a50.74,50.74,0,0,0,.68,14.26,36.7,36.7,0,0,0,5,12.93,30.11,30.11,0,0,0,9.51,9.45,25.72,25.72,0,0,0,14,3.7,33.46,33.46,0,0,0,16.32-4.29c5.21-2.85,15.32-12.23,18.72-17h.82c-4.53,5.91-15.74,16.57-22.43,19.62A52.82,52.82,0,0,1,1214,623Zm2.21-70.49q-8,0-14.28,6.8t-8.16,19.36h42q-.85-12.85-6.2-19.51A16.49,16.49,0,0,0,1216.24,552.5Z" transform="translate(-12.18 -24)"/>
  <path class="cls-1" d="M1096,623v-1.18a11.64,11.64,0,0,0,6.21-1.62,5.51,5.51,0,0,0,2.63-5V529.74a5.94,5.94,0,0,0-2.89-4.87,11.7,11.7,0,0,0-6-1.48v-1.18l21.08-8.72V568a42.59,42.59,0,0,1,14.44-11.23A39,39,0,0,1,1147.2,553a27.36,27.36,0,0,1,9.77,1.77,22.63,22.63,0,0,1,8.16,5.32,25.39,25.39,0,0,1,5.52,8.94,35.68,35.68,0,0,1,2,12.64v33.54a5.49,5.49,0,0,0,2.63,5,11.64,11.64,0,0,0,6.21,1.62V623h-29.91v-1.18a11.48,11.48,0,0,0,6.28-1.62,5.55,5.55,0,0,0,2.55-5V580.29q0-11.68-5.52-17.37a18.12,18.12,0,0,0-13.51-5.69,26.56,26.56,0,0,0-13.85,3.7,39.52,39.52,0,0,0-10.45,8.86v45.37c0,2.27,1.16,3.94,3.48,5a16.56,16.56,0,0,0,7.05,1.62V623Z" transform="translate(-12.18 -24)"/>
  <path class="cls-1" d="M1428.71,612.35a5.26,5.26,0,0,1-1.2-3.1,4.81,4.81,0,0,1,.77-2.66,5.49,5.49,0,0,1,2.29-1.92,7.39,7.39,0,0,1,3.24-.74,6.9,6.9,0,0,1,3.73,1,8,8,0,0,1,2.55,2.59,45.34,45.34,0,0,0,3.57,4.87,24.15,24.15,0,0,0,4.17,3.92,18.07,18.07,0,0,0,5.26,2.66,22.44,22.44,0,0,0,6.89,1,30.93,30.93,0,0,0,6.71-.74,18.15,18.15,0,0,0,5.86-2.36,13.34,13.34,0,0,0,4.17-4.22,11.39,11.39,0,0,0,1.61-6.13,10,10,0,0,0-3.83-8.05,35.82,35.82,0,0,0-9.42-5.47,118.89,118.89,0,0,0-12.33-4.21,100.33,100.33,0,0,1-12.32-4.36,34.33,34.33,0,0,1-9.43-5.91,11.37,11.37,0,0,1-3.82-8.8,15.41,15.41,0,0,1,2.63-9.08,21,21,0,0,1,6.88-6.21,35.55,35.55,0,0,1,9.52-3.7,45.65,45.65,0,0,1,10.54-1.25,55.91,55.91,0,0,1,7.22.52,61.25,61.25,0,0,1,7.9,1.55,38.3,38.3,0,0,1,7.31,2.73,15.43,15.43,0,0,1,5.27,4.07,4.72,4.72,0,0,1,1.19,3,5.18,5.18,0,0,1-.77,2.74,5.36,5.36,0,0,1-2.21,2,6.82,6.82,0,0,1-3.14.74,7.31,7.31,0,0,1-6.12-3.4,48,48,0,0,0-8.32-8.72q-4.61-3.69-11.9-3.69a32,32,0,0,0-6.21.66,22.93,22.93,0,0,0-6,2.07,14.38,14.38,0,0,0-4.5,3.55,7.69,7.69,0,0,0-1.78,5.09,9.67,9.67,0,0,0,3.82,7.84,36.47,36.47,0,0,0,9.51,5.39c3.8,1.53,7.9,3,12.33,4.29a91.58,91.58,0,0,1,12.31,4.65,33.7,33.7,0,0,1,9.52,6.43,12.82,12.82,0,0,1,3.83,9.53,16.55,16.55,0,0,1-2.55,9.24,21.54,21.54,0,0,1-6.63,6.5,32.17,32.17,0,0,1-9.35,3.92,43.86,43.86,0,0,1-10.7,1.33,67.28,67.28,0,0,1-7.31-.45,49.75,49.75,0,0,1-8.07-1.55,41.29,41.29,0,0,1-7.4-2.8A14.47,14.47,0,0,1,1428.71,612.35Z" transform="translate(-12.18 -24)"/>
  <path class="cls-1" d="M988.83,612.35a5.24,5.24,0,0,1-1.19-3.1,4.81,4.81,0,0,1,.77-2.66,5.43,5.43,0,0,1,2.29-1.92,7.38,7.38,0,0,1,3.23-.74,6.93,6.93,0,0,1,3.74,1,8,8,0,0,1,2.55,2.59,45.34,45.34,0,0,0,3.57,4.87,24.09,24.09,0,0,0,4.16,3.92,18.13,18.13,0,0,0,5.27,2.66,22.37,22.37,0,0,0,6.88,1,30.87,30.87,0,0,0,6.71-.74,18.06,18.06,0,0,0,5.86-2.36,13.34,13.34,0,0,0,4.17-4.22,11.39,11.39,0,0,0,1.62-6.13,10,10,0,0,0-3.83-8.05,35.89,35.89,0,0,0-9.43-5.47,119.49,119.49,0,0,0-12.32-4.21,100.33,100.33,0,0,1-12.32-4.36,34.39,34.39,0,0,1-9.44-5.91,11.41,11.41,0,0,1-3.82-8.8,15.35,15.35,0,0,1,2.64-9.08,20.84,20.84,0,0,1,6.88-6.21,35.48,35.48,0,0,1,9.51-3.7,45.78,45.78,0,0,1,10.54-1.25,55.79,55.79,0,0,1,7.22.52,61.4,61.4,0,0,1,7.91,1.55,38.21,38.21,0,0,1,7.3,2.73,15.34,15.34,0,0,1,5.27,4.07,4.72,4.72,0,0,1,1.19,3A5.17,5.17,0,0,1,1045,564a5.42,5.42,0,0,1-2.21,2,6.89,6.89,0,0,1-3.15.74,7.53,7.53,0,0,1-3.14-.74,7.66,7.66,0,0,1-3-2.66,47.66,47.66,0,0,0-8.32-8.72q-4.59-3.69-11.9-3.69a31.8,31.8,0,0,0-6.2.66,22.93,22.93,0,0,0-6,2.07,14.31,14.31,0,0,0-4.51,3.55,7.69,7.69,0,0,0-1.78,5.09,9.67,9.67,0,0,0,3.82,7.84,36.54,36.54,0,0,0,9.52,5.39q5.68,2.29,12.32,4.29a91.73,91.73,0,0,1,12.32,4.65,33.84,33.84,0,0,1,9.52,6.43,12.81,12.81,0,0,1,3.82,9.53,16.55,16.55,0,0,1-2.55,9.24,21.54,21.54,0,0,1-6.63,6.5,32.1,32.1,0,0,1-9.34,3.92,43.94,43.94,0,0,1-10.71,1.33,67.43,67.43,0,0,1-7.31-.45,49.75,49.75,0,0,1-8.07-1.55,41.18,41.18,0,0,1-7.39-2.8A14.51,14.51,0,0,1,988.83,612.35Z" transform="translate(-12.18 -24)"/>
  <path class="cls-1" d="M1047.65,551.17V550a78.8,78.8,0,0,0,7.22-3.54,52.42,52.42,0,0,0,5.78-3.77,51.11,51.11,0,0,0,5.1-4.44q2.46-2.43,5.18-5.54V550h20.4v1.18h-20.4v51q0,15.38,10.54,15.37,5.77,0,10.71-5.18l.84.74a37.3,37.3,0,0,1-8.58,6.36,21,21,0,0,1-10.11,2.51q-8.16,0-11.9-4.58t-3.73-14.78V551.17Z" transform="translate(-12.18 -24)"/>
  <path class="cls-1" d="M1258.72,551.17V550a78.8,78.8,0,0,0,7.22-3.54,52.42,52.42,0,0,0,5.78-3.77,50,50,0,0,0,5.1-4.44q2.46-2.43,5.19-5.54V550h20.39v1.18H1282v51q0,15.38,10.53,15.37,5.78,0,10.71-5.18l.85.74a37.73,37.73,0,0,1-8.58,6.36A21.11,21.11,0,0,1,1285.4,622q-8.14,0-11.89-4.58t-3.74-14.78V551.17Z" transform="translate(-12.18 -24)"/>
  <path class="cls-1" d="M1410.7,591.5c-21.37-15.65-41.21-2.8-50.52,5.45a45.23,45.23,0,0,1-1.52-10.31,42.32,42.32,0,0,1,2.55-16.25,29.91,29.91,0,0,1,8.58-12.41q5.78-5,14.45-4.81a14.51,14.51,0,0,1,5.69,1.11,20.11,20.11,0,0,1,4.76,2.81,27.27,27.27,0,0,1,3.91,3.84c1.19,1.43,2.29,2.83,3.32,4.22a9,9,0,0,0,2.63,2.51,6.67,6.67,0,0,0,3.65,1,5.88,5.88,0,0,0,3.06-.81,6,6,0,0,0,2.13-2.07,5.05,5.05,0,0,0,.68-2.88,5,5,0,0,0-1.45-3.11q-3.06-3.54-10.88-6.2a64.91,64.91,0,0,0-7-1.63,41.52,41.52,0,0,0-6.88-.59,40.44,40.44,0,0,0-15.64,3,43.82,43.82,0,0,0-12.83,8.06,39.49,39.49,0,0,0-8.83,11.59,33.74,33.74,0,0,0-3.66,13.68,36.92,36.92,0,0,0,1.79,13.44,32.47,32.47,0,0,0,6.45,11.45,30.4,30.4,0,0,0,11,7.84,38.1,38.1,0,0,0,15.3,2.88,47.6,47.6,0,0,0,21.16-5.1A45.63,45.63,0,0,0,1418,605.8a36.83,36.83,0,0,1-3.64,31.87,19,19,0,0,1-6.3,6l-.1.06c-11.44,6.91-31.89,11.5-67.83,1.85-77.93-20.9-121.7-23.91-133.81-9.21-4.86,5.9-4.52,14.7.92,26.13a6.18,6.18,0,0,0,1,3.1c.7,1,1.93,1.65,3,.83a2,2,0,0,0,.38-2.8c-.94-1.24-2.27-.79-3.39-1.92-2.63-5.58-4-10.48-4.07-14.65,4.69-26.39,110-5.17,137.33.15,59.77,15.5,76.66-8.62,80.41-16.46C1428.31,617.46,1423.59,600.94,1410.7,591.5Zm6.68,13.25a38.5,38.5,0,0,1-12.92,11.38,33.44,33.44,0,0,1-16.31,4.28q-9.69,0-16.15-5a32.12,32.12,0,0,1-9.77-12.49,40.33,40.33,0,0,1-1.68-4.62c8.3-7.5,26-19.57,45.56-8.3a23,23,0,0,1,7.63,7.12,37.21,37.21,0,0,1,3.91,7.8Z" transform="translate(-12.18 -24)"/>
  <path class="cls-1" d="M1329.4,613.62V551.4l-21.07,8.87v1.18a11.72,11.72,0,0,1,6,1.48,5.94,5.94,0,0,1,2.89,4.88v45.81a5.48,5.48,0,0,1-2.64,5,11.49,11.49,0,0,1-6.2,1.63v1.18h29.91v-1.18a11.43,11.43,0,0,1-6.29-1.63A5.53,5.53,0,0,1,1329.4,613.62Z" transform="translate(-12.18 -24)"/>
  <ellipse class="cls-1" cx="1309.58" cy="508.27" rx="7.69" ry="6.5"/>
</svg>
